<?xml version="1.0" encoding="UTF-8"?>
<svg xmlns="http://www.w3.org/2000/svg" version="1.1" viewBox="0 0 648 648">
  <defs>
    <style>
      .cls-1 {
        fill: #010101;
      }

      .cls-2 {
        fill: #fff;
      }
    </style>
  </defs>
  <!-- Generator: Adobe Illustrator 28.7.3, SVG Export Plug-In . SVG Version: 1.2.0 Build 164)  -->
  <g>
    <g id="Layer_1">
      <rect class="cls-1" x="120.62" y="138.11" width="371.78" height="371.78" rx="185.89" ry="185.89"/>
      <g>
        <g>
          <path class="cls-2" d="M356.53,444.04h-100.04c-38.61,0-70.03-31.41-70.03-70.03v-100.04c0-38.61,31.41-70.03,70.03-70.03h100.04c38.61,0,70.03,31.41,70.03,70.03v100.04c0,38.61-31.41,70.03-70.03,70.03ZM256.49,223.96c-27.58,0-50.02,22.44-50.02,50.02v100.04c0,27.58,22.44,50.02,50.02,50.02h100.04c27.58,0,50.02-22.44,50.02-50.02v-100.04c0-27.58-22.44-50.02-50.02-50.02h-100.04Z"/>
          <path class="cls-2" d="M306.51,382.02c-31.99,0-58.02-26.03-58.02-58.02s26.03-58.02,58.02-58.02,58.02,26.03,58.02,58.02-26.03,58.02-58.02,58.02ZM306.51,285.99c-20.96,0-38.01,17.05-38.01,38.01s17.05,38.01,38.01,38.01,38.01-17.05,38.01-38.01-17.05-38.01-38.01-38.01Z"/>
        </g>
        <circle class="cls-2" cx="367.54" cy="259.84" r="15.65" transform="translate(-71.46 160.43) rotate(-22.5)"/>
      </g>
    </g>
  </g>
</svg>