<?xml version="1.0" encoding="UTF-8"?>
<svg xmlns="http://www.w3.org/2000/svg" version="1.1" viewBox="0 0 648 648">
  <defs>
    <style>
      .cls-1 {
        fill: #fff;
        fill-rule: evenodd;
      }

      .cls-2 {
        fill: #010101;
      }
    </style>
  </defs>
  <!-- Generator: Adobe Illustrator 28.7.3, SVG Export Plug-In . SVG Version: 1.2.0 Build 164)  -->
  <g>
    <g id="Layer_1">
      <rect class="cls-2" x="11.84" y="11.84" width="624.31" height="624.31" rx="312.16" ry="312.16"/>
      <path class="cls-1" d="M428.85,111.31v.37c.02,6.73,1.99,103.97,104.05,110.04,0,90.47.05,0,.05,75.14-7.67.45-67.17-3.85-104.21-36.87l-.11,146.28c.92,66.24-35.96,131.19-104.98,144.28-19.34,3.66-36.75,4.07-65.99-2.31-168.4-50.37-112.44-300.15,56.65-273.42,0,80.64.05-.02.05,80.64-69.85-10.28-93.22,47.83-74.66,89.44,16.89,37.88,86.45,46.1,110.71-7.35,2.75-10.46,4.12-22.38,4.12-35.77V111.31h74.34Z"/>
    </g>
  </g>
</svg>